<?xml version="1.0" encoding="utf-8"?>
<!-- Generator: Adobe Illustrator 17.1.0, SVG Export Plug-In . SVG Version: 6.00 Build 0)  -->
<!DOCTYPE svg PUBLIC "-//W3C//DTD SVG 1.1//EN" "http://www.w3.org/Graphics/SVG/1.1/DTD/svg11.dtd">
<svg version="1.1" id="Layer_1" xmlns="http://www.w3.org/2000/svg" xmlns:xlink="http://www.w3.org/1999/xlink" x="0px" y="0px"
	 viewBox="0 0 128 128" enable-background="new 0 0 128 128" xml:space="preserve">
<g>
	<path fill="#3E4E5C" d="M64,0c35.3,0,64,28.7,64,64s-28.7,64-64,64S0,99.3,0,64S28.7,0,64,0z"/>
	<path fill="#FFFFFF" d="M64.4,59c1.7,0,3,0.8,3,2.2c0,1.2-1.5,1.7-2.8,2.6c-1.5,1.1-3.3,2.4-3.3,4.6c0,1.3,0.9,2.5,2.6,2.5
		c1.9,0,2.3-1,2.7-1.9c0.1-0.3,0.2-0.6,0.4-0.9c0.3-0.4,0.9-0.8,1.6-1.3c1.8-1.3,4.4-3,4.4-6.1c0-5-4.7-6.8-8.8-6.8
		c-4.3,0-8.2,3.2-8.2,6.6c0,1.4,1.1,2.5,2.6,2.5c1.8,0,2.4-1.1,2.9-2.1C62.1,60,62.5,59,64.4,59z M100,58.1l-0.2,0
		c2.7,0,4.2,0,4.2,0C104,35.9,86.1,18,64,18S24,35.9,24,58.1c0,0,1.4,0,4,0c0-19.9,16.1-36,36-36C83.9,22,100,38.1,100,58.1z
		 M101.1,73.5c-0.9,8.1-6.2,28.5-36.2,30.4c-2-0.3-0.8,1.7,0.1,2c32.1-2.1,37.3-24.3,38.2-32.6C102.7,71.4,101.8,71.8,101.1,73.5z
		 M67,76.1c0-1.7-1.3-3-3-3s-3,1.3-3,3s1.3,3,3,3C65.7,79.1,67,77.8,67,76.1z"/>
	<path fill="#EFC84A" d="M64,98c3.3,0,6,2.7,6,6s-2.7,6-6,6s-6-2.7-6-6S60.7,98,64,98z"/>
	<path fill="#2C3E50" d="M26,53c-5.5,0-10,4.5-10,10v6c0,5.5,4.5,10,10,10s10-4.5,10-10v-6C36,57.5,31.5,53,26,53z M102,53
		c-5.5,0-10,4.5-10,10v6c0,5.5,4.5,10,10,10s10-4.5,10-10v-6C112,57.5,107.5,53,102,53z"/>
	<path fill="#EFC84A" d="M30,53.8c-1.2-0.5-2.6-0.8-4-0.8c-5.5,0-10,4.5-10,10v6c0,5.5,4.5,10,10,10c1.4,0,2.8-0.3,4-0.8
		C30,78.2,30,53.8,30,53.8z M102,53c-1.4,0-2.8,0.3-4,0.8v24.3c1.2,0.5,2.6,0.8,4,0.8c5.5,0,10-4.5,10-10v-6
		C112,57.5,107.5,53,102,53z"/>
	<path fill="#D9AD14" d="M30,53.8c-1.2-0.5-2.6-0.8-4-0.8v26c1.4,0,2.8-0.3,4-0.8C30,78.2,30,53.8,30,53.8z M98,53.8v24.3
		c1.2,0.5,2.6,0.8,4,0.8V53C100.6,53,99.2,53.3,98,53.8z"/>
</g>
</svg>
