<?xml version="1.0" encoding="utf-8"?>
<!-- Generator: Adobe Illustrator 17.1.0, SVG Export Plug-In . SVG Version: 6.00 Build 0)  -->
<!DOCTYPE svg PUBLIC "-//W3C//DTD SVG 1.1//EN" "http://www.w3.org/Graphics/SVG/1.1/DTD/svg11.dtd">
<svg version="1.1" id="Layer_1" xmlns="http://www.w3.org/2000/svg" xmlns:xlink="http://www.w3.org/1999/xlink" x="0px" y="0px"
	 viewBox="0 0 128 128" enable-background="new 0 0 128 128" xml:space="preserve">
<g>
	<path fill="#3E4E5C" d="M64,0c35.3,0,64,28.7,64,64c0,35.3-28.7,64-64,64S0,99.3,0,64C0,28.7,28.7,0,64,0z"/>
	<path fill="#EBEEEE" d="M86.1,55.8v-5.9c0.6-0.2,1-0.8,1-1.4c0-0.8-0.7-1.5-1.5-1.5h-9.9c-0.8,0-1.5,0.7-1.5,1.5
		c0,0.7,0.4,1.2,1,1.4v5.9c-3.1,1-5.9,2.7-8,5.1c-0.1,0,12.8,31,12.9,31l0.7,0C90.8,92,99,83.7,99,73.5C99,65.2,93.6,58.2,86.1,55.8
		L86.1,55.8z"/>
	<path fill="#334D5D" d="M68.1,64c2.8-3.6,7.5-6,12.4-6C89.1,58,96,64.9,96,73.5S89.1,89,80.5,89c-0.6,0-1.6,0-2.2-0.1"/>
	<path fill="#4D6471" d="M86,75c-1.7,0-3,1.3-3,3c0,1.7,1.3,3,3,3c1.7,0,3-1.3,3-3C89,76.3,87.7,75,86,75z M90,69c-1.1,0-2,0.9-2,2
		c0,1.1,0.9,2,2,2s2-0.9,2-2C92,69.9,91.1,69,90,69z"/>
	<path fill="#ECF0F0" d="M63,51v-9c0-0.4-0.1-0.7-0.2-1c1.2-0.2,2.2-1.2,2.2-2.5c0-1.4-1.1-2.5-2.5-2.5h-15c-1.4,0-2.5,1.1-2.5,2.5
		c0,1.3,1,2.3,2.2,2.5c-0.1,0.3-0.2,0.7-0.2,1v9L28,97c-0.6,1.6,1.3,3,3,3h48c1.7,0,3.6-1.5,3-3L63,51z"/>
	<path fill="#E45136" d="M66.3,67.1C71.3,79.4,78,95,78,95c0.6,1.5-0.3,2-2,2H34c-1.7,0-2.5-0.5-2-2c0,0,6.4-15.8,11.3-28
		C49.7,61.5,55.7,69.1,66.3,67.1z"/>
	<path fill="#F36A51" d="M52.5,78c-3,0-5.5,2.5-5.5,5.5c0,3,2.5,5.5,5.5,5.5c3,0,5.5-2.5,5.5-5.5C58,80.5,55.5,78,52.5,78z M63,74.5
		c0-1.4-1.1-2.5-2.5-2.5S58,73.1,58,74.5s1.1,2.5,2.5,2.5S63,75.9,63,74.5z M66,84c-2.2,0-4,1.8-4,4c0,2.2,1.8,4,4,4s4-1.8,4-4
		C70,85.8,68.2,84,66,84z"/>
	<path fill="#FFFFFF" d="M57.5,28c-1.4,0-2.5,1.1-2.5,2.5s1.1,2.5,2.5,2.5s2.5-1.1,2.5-2.5S58.9,28,57.5,28z M50.5,21
		c-1.9,0-3.5,1.6-3.5,3.5c0,1.9,1.6,3.5,3.5,3.5c1.9,0,3.5-1.6,3.5-3.5C54,22.6,52.4,21,50.5,21z M50.5,26c-0.8,0-1.5-0.7-1.5-1.5
		s0.7-1.5,1.5-1.5s1.5,0.7,1.5,1.5S51.3,26,50.5,26z M83,34c-1.7,0-3,1.3-3,3c0,1.7,1.3,3,3,3c1.7,0,3-1.3,3-3
		C86,35.3,84.7,34,83,34z M83,38c-0.6,0-1-0.4-1-1c0-0.6,0.4-1,1-1c0.6,0,1,0.4,1,1C84,37.6,83.6,38,83,38z M78.5,41
		c-0.8,0-1.5,0.7-1.5,1.5s0.7,1.5,1.5,1.5s1.5-0.7,1.5-1.5S79.3,41,78.5,41z"/>
	<path fill="#BDBFBF" d="M47,42h16c0-0.4-0.1-0.7-0.2-1H47.2C47.1,41.3,47,41.6,47,42z"/>
	<rect x="75.1" y="49.9" fill="#BDBFBF" width="10.9" height="1"/>
</g>
</svg>
