<?xml version="1.0" encoding="utf-8"?>
<!-- Generator: Adobe Illustrator 17.1.0, SVG Export Plug-In . SVG Version: 6.00 Build 0)  -->
<!DOCTYPE svg PUBLIC "-//W3C//DTD SVG 1.1//EN" "http://www.w3.org/Graphics/SVG/1.1/DTD/svg11.dtd">
<svg version="1.1" id="Layer_1" xmlns="http://www.w3.org/2000/svg" xmlns:xlink="http://www.w3.org/1999/xlink" x="0px" y="0px"
	 viewBox="0 0 128 128" enable-background="new 0 0 128 128" xml:space="preserve">
<g>
	<path fill="#3E4E5C" d="M64,0c35.3,0,64,28.7,64,64c0,35.3-28.7,64-64,64S0,99.3,0,64C0,28.7,28.7,0,64,0z"/>
	<path fill="#E4E7E8" d="M26.3,33h75.4c2.4,0,4.3,1.9,4.3,4.3l0.1,53.4c0,2.4-1.9,4.3-4.3,4.3H26.3c-2.4,0-4.3-1.9-4.3-4.3V37.3
		C22,34.9,23.9,33,26.3,33z"/>
	<path fill="#FFFFFF" d="M101,46v44H27V46C27,46,101,46,101,46z"/>
	<path fill="#E4E7E8" d="M75,51v34h21V51C96,51,75,51,75,51z M70,51H32v9h38V51z M32,65h38v-2H32C32,63,32,65,32,65z M70,68H32v2h38
		L70,68L70,68z M32,75h38v-2H32V75z M70,78H32v2h38L70,78L70,78z M32,85h38v-2H32V85z"/>
	<path fill="#BD3E25" d="M29.5,37c1.4,0,2.5,1.1,2.5,2.5S30.9,42,29.5,42S27,40.9,27,39.5S28.1,37,29.5,37z"/>
	<path fill="#E27C3F" d="M37.5,37c1.4,0,2.5,1.1,2.5,2.5S38.9,42,37.5,42S35,40.9,35,39.5S36.1,37,37.5,37z"/>
	<path fill="#45B39C" d="M45.5,37c1.4,0,2.5,1.1,2.5,2.5S46.9,42,45.5,42S43,40.9,43,39.5S44.1,37,45.5,37z"/>
</g>
</svg>
