<?xml version="1.0" encoding="utf-8"?>
<!-- Generator: Adobe Illustrator 17.1.0, SVG Export Plug-In . SVG Version: 6.00 Build 0)  -->
<!DOCTYPE svg PUBLIC "-//W3C//DTD SVG 1.1//EN" "http://www.w3.org/Graphics/SVG/1.1/DTD/svg11.dtd">
<svg version="1.1" id="Layer_1" xmlns="http://www.w3.org/2000/svg" xmlns:xlink="http://www.w3.org/1999/xlink" x="0px" y="0px"
	 viewBox="0 0 128 128" enable-background="new 0 0 128 128" xml:space="preserve">
<g>
	<path fill="#3E4E5C" d="M64,0c35.3,0,64,28.7,64,64c0,35.3-28.7,64-64,64C28.7,128,0,99.3,0,64C0,28.7,28.7,0,64,0z"/>
	<g>
		<defs>
			<circle id="SVGID_1_" cx="64" cy="64" r="64"/>
		</defs>
		<clipPath id="SVGID_2_">
			<use xlink:href="#SVGID_1_"  overflow="visible"/>
		</clipPath>
		<g clip-path="url(#SVGID_2_)">
			<path fill="#EFC84A" d="M64,75c20.4,0,37,15,37,33.5C101,127,84.4,142,64,142s-37-15-37-33.5C27,90,43.6,75,64,75z"/>
			<path fill="#DF5A48" d="M80,98c1.2,0,2.2,1,2.2,2.2c0,0.2,0,0.5-0.1,0.7c0.4-0.5,1-0.7,1.7-0.7c1.2,0,2.2,1,2.2,2.2
				c0,1.1-0.8,2-1.8,2.2c1,0.2,1.8,1.1,1.8,2.1c0,1.2-1,2.2-2.2,2.2c-0.7,0-1.3-0.3-1.7-0.7c0.1,0.2,0.1,0.5,0.1,0.7
				c0,1.2-1,2.2-2.2,2.2s-2.2-1-2.2-2.2c0-0.2,0-0.5,0.1-0.7c-0.4,0.5-1,0.7-1.7,0.7c-1.2,0-2.2-1-2.2-2.2c0-1.1,0.8-2,1.8-2.1
				c-1-0.2-1.8-1.1-1.8-2.2c0-1.2,1-2.2,2.2-2.2c0.7,0,1.3,0.3,1.7,0.7c-0.1-0.2-0.1-0.5-0.1-0.7C77.8,99,78.8,98,80,98z M80,102.2
				c-1.3,0-2.4,1-2.4,2.3c0,1.3,1.1,2.3,2.4,2.3c1.3,0,2.4-1,2.4-2.3C82.4,103.2,81.3,102.2,80,102.2z"/>
			<path fill="#42210B" d="M39.5,41h49c5.2,0,9.5,4.3,9.5,9.5c0,5.2-4.3,9.5-9.5,9.5h-49c-5.2,0-9.5-4.3-9.5-9.5
				C30,45.3,34.3,41,39.5,41z"/>
			<path fill="#E09274" d="M64,24c16.6,0,30,15.2,30,34S80.6,92,64,92S34,76.8,34,58S47.4,24,64,24z"/>
			<path fill="#42210B" d="M34,48l0.2,0c11,0,20.6-3.8,26-9.4c5.6,5.1,14.6,8.4,24.9,8.4c2.8,0,5.4-0.2,8-0.7
				C88.6,32.1,77.2,22,63.8,22C49.8,22,37.9,32.9,34,48z"/>
			<path fill="#FFFFFF" d="M73.5,55c-3,0-5.5,2.5-5.5,5.5c0,3,2.5,5.5,5.5,5.5s5.5-2.5,5.5-5.5C79,57.5,76.5,55,73.5,55z M54.5,55
				c-3,0-5.5,2.5-5.5,5.5c0,3,2.5,5.5,5.5,5.5s5.5-2.5,5.5-5.5C60,57.5,57.5,55,54.5,55z"/>
			<path fill="#334D5D" d="M54.5,58c-1.4,0-2.5,1.1-2.5,2.5s1.1,2.5,2.5,2.5s2.5-1.1,2.5-2.5S55.9,58,54.5,58z M73.5,58
				c-1.4,0-2.5,1.1-2.5,2.5s1.1,2.5,2.5,2.5s2.5-1.1,2.5-2.5S74.9,58,73.5,58z"/>
		</g>
	</g>
	<path fill="#9C6550" d="M64.1,80c-2.7,0-4.9-1.4-5-1.5c-0.7-0.5-0.9-1.4-0.4-2.1c0.5-0.7,1.4-0.9,2.1-0.4c0.1,0.1,3.3,2.1,6.2,0
		c0.7-0.5,1.6-0.3,2.1,0.3c0.5,0.7,0.3,1.6-0.3,2.1C67.1,79.7,65.5,80,64.1,80z"/>
</g>
</svg>
