<?xml version="1.0" encoding="utf-8"?>
<!-- Generator: Adobe Illustrator 18.0.0, SVG Export Plug-In . SVG Version: 6.00 Build 0)  -->
<!DOCTYPE svg PUBLIC "-//W3C//DTD SVG 1.1//EN" "http://www.w3.org/Graphics/SVG/1.1/DTD/svg11.dtd">
<svg version="1.1" id="Layer_1" xmlns="http://www.w3.org/2000/svg" xmlns:xlink="http://www.w3.org/1999/xlink" x="0px" y="0px"
	 viewBox="-4 86 620 620" enable-background="new -4 86 620 620" xml:space="preserve">
<path fill="#3E4E5C" d="M306,90c168.8,0,306,137.2,306,306S474.8,702,306,702S0,564.8,0,396S137.2,90,306,90z"/>
<g>
	<path fill="#69CAFF" d="M68.3,396c0,131.1,106.7,237.8,237.7,237.8c131.1,0,237.7-106.7,237.7-237.8
		c0-131.1-106.6-237.7-237.7-237.7C174.9,158.3,68.3,264.9,68.3,396z M79.2,396c0-125.1,101.8-226.8,226.8-226.8
		c125.1,0,226.9,101.8,226.9,226.8c0,125.1-101.8,226.9-226.9,226.9C180.9,622.8,79.2,521.1,79.2,396z"/>
	<path fill="#FFFFFF" d="M102,396c0,80.7,46.9,150.5,115,183.6L119.7,313C108.4,338.4,102,366.4,102,396z M443.7,385.7
		c0-25.2-9.1-42.7-16.8-56.2c-10.3-16.8-20-31-20-47.8c0-18.7,14.2-36.2,34.2-36.2c0.9,0,1.8,0.1,2.6,0.2
		C407.4,212.3,359.1,192,306,192c-71.3,0-133.9,36.6-170.4,91.9c4.8,0.2,9.3,0.3,13.1,0.3c21.3,0,54.4-2.6,54.4-2.6
		c11-0.6,12.3,15.5,1.3,16.8c0,0-11.1,1.3-23.3,1.9l74.3,220.9l44.6-133.9l-31.8-87.1c-11-0.6-21.4-1.9-21.4-1.9
		c-11-0.7-9.7-17.5,1.3-16.8c0,0,33.7,2.6,53.7,2.6c21.3,0,54.4-2.6,54.4-2.6c11-0.6,12.3,15.5,1.3,16.8c0,0-11.1,1.3-23.3,1.9
		l73.7,219.2l20.3-68C438.5,425.1,443.7,403.2,443.7,385.7z M309.6,413.8l-61.2,177.8C266.7,597,286,600,306,600
		c23.8,0,46.5-4.1,67.7-11.6c-0.5-0.9-1-1.8-1.5-2.8L309.6,413.8z M485,298.2c0.9,6.5,1.4,13.5,1.4,21c0,20.7-3.9,44-15.5,73
		l-62.3,180.1C469.2,536.9,510,471.2,510,396C510,360.5,500.9,327.2,485,298.2z"/>
</g>
</svg>
